<svg xmlns="http://www.w3.org/2000/svg" width="245.628" height="245.628" viewBox="0 0 245.628 245.628">
  <path id="call" d="M53.9,110.8a206.718,206.718,0,0,0,89.927,89.927l30.021-30.021a13.568,13.568,0,0,1,13.919-3.275,155.66,155.66,0,0,0,48.716,7.778,13.686,13.686,0,0,1,13.646,13.646v47.625a13.686,13.686,0,0,1-13.646,13.646C108.346,250.128,4.5,146.282,4.5,18.146A13.686,13.686,0,0,1,18.146,4.5H65.907A13.686,13.686,0,0,1,79.553,18.146a155.024,155.024,0,0,0,7.778,48.716A13.694,13.694,0,0,1,83.92,80.781L53.9,110.8Z" transform="translate(-4.5 -4.5)" fill="#2092be"/>
</svg>
