<svg xmlns="http://www.w3.org/2000/svg" width="145.718" height="145.718" viewBox="0 0 145.718 145.718">
  <path id="facebook" d="M122.069,2.25H14.648A14.648,14.648,0,0,0,0,16.9V124.319a14.648,14.648,0,0,0,14.648,14.648H56.533V92.487H37.307V70.609H56.533V53.934c0-18.967,11.291-29.443,28.586-29.443a116.474,116.474,0,0,1,16.943,1.477V44.584H92.519c-9.4,0-12.335,5.835-12.335,11.819V70.609h20.99L97.817,92.487H80.184v46.481h41.885a14.648,14.648,0,0,0,14.648-14.648V16.9A14.648,14.648,0,0,0,122.069,2.25Z" transform="translate(4.5 2.25)" fill="none" stroke="#2092be" stroke-width="9"/>
</svg>
