<svg xmlns="http://www.w3.org/2000/svg" width="285.553" height="285.49" viewBox="0 0 285.553 285.49">
  <path id="instagram" d="M142.8,71.787a73.2,73.2,0,1,0,73.2,73.2A73.08,73.08,0,0,0,142.8,71.787Zm0,120.783a47.587,47.587,0,1,1,47.587-47.587A47.673,47.673,0,0,1,142.8,192.569ZM236.066,68.792A17.073,17.073,0,1,1,218.993,51.72,17.033,17.033,0,0,1,236.066,68.792ZM284.545,86.12c-1.083-22.87-6.307-43.128-23.061-59.818-16.69-16.69-36.948-21.914-59.818-23.061C178.1,1.9,107.447,1.9,83.877,3.241c-22.806,1.083-43.064,6.307-59.818,23S2.145,63.187,1,86.056C-.34,109.627-.34,180.274,1,203.845c1.083,22.87,6.307,43.128,23.061,59.818s36.948,21.914,59.818,23.061c23.57,1.338,94.218,1.338,117.789,0,22.87-1.083,43.128-6.307,59.818-23.061,16.69-16.69,21.914-36.948,23.061-59.818,1.338-23.57,1.338-94.155,0-117.725ZM254.094,229.135a48.178,48.178,0,0,1-27.138,27.138c-18.793,7.453-63.385,5.733-84.153,5.733s-65.424,1.656-84.153-5.733a48.178,48.178,0,0,1-27.138-27.138c-7.453-18.793-5.733-63.385-5.733-84.153s-1.656-65.424,5.733-84.153A48.178,48.178,0,0,1,58.65,33.692c18.793-7.453,63.385-5.733,84.153-5.733s65.424-1.656,84.153,5.733a48.178,48.178,0,0,1,27.138,27.138c7.453,18.793,5.733,63.385,5.733,84.153S261.547,210.406,254.094,229.135Z" transform="translate(0.005 -2.238)" fill="#2092be"/>
</svg>
