<svg xmlns="http://www.w3.org/2000/svg" width="256.773" height="182.81" viewBox="0 0 256.773 182.81">
  <g id="youtube" transform="translate(2.501 -2)">
    <path id="Path_1" data-name="Path 1" d="M245.064,33.364a31.434,31.434,0,0,0-21.936-22.614C203.679,6,125.885,6,125.885,6S48.091,6,28.643,11.2A31.434,31.434,0,0,0,6.707,33.816a327.913,327.913,0,0,0-5.2,59.815,327.91,327.91,0,0,0,5.2,60.268,31.434,31.434,0,0,0,21.936,21.71c19.448,5.2,97.242,5.2,97.242,5.2s77.794,0,97.242-5.2a31.434,31.434,0,0,0,21.936-22.615,327.91,327.91,0,0,0,5.2-59.363,327.9,327.9,0,0,0-5.2-60.268Z" transform="translate(0)" fill="none" stroke="#2092be" stroke-linecap="round" stroke-linejoin="round" stroke-width="8"/>
    <path id="Path_2" data-name="Path 2" d="M14.625,86.669,79.642,49.695,14.625,12.72Z" transform="translate(85.819 43.936)" fill="none" stroke="#2092be" stroke-linecap="round" stroke-linejoin="round" stroke-width="8"/>
  </g>
</svg>
